<?xml version="1.0" standalone="no"?>
<!DOCTYPE svg PUBLIC "-//W3C//DTD SVG 20010904//EN"
 "http://www.w3.org/TR/2001/REC-SVG-20010904/DTD/svg10.dtd">
<svg version="1.0" xmlns="http://www.w3.org/2000/svg"
 width="423.000000pt" height="423.000000pt" viewBox="0 0 423.000000 423.000000"
 preserveAspectRatio="xMidYMid meet">
<metadata>
Created by potrace 1.11, written by Peter Selinger 2001-2013
</metadata>
<g transform="translate(0.000000,423.000000) scale(0.100000,-0.100000)"
fill="#000000" stroke="none">
<path d="M2074 4142 c-28 -19 -31 -60 -30 -470 1 -232 -1 -422 -4 -423 -3 -1
-22 -2 -42 -3 -63 -4 -66 -12 -67 -154 0 -70 0 -137 -1 -148 0 -14 -10 -26
-29 -33 -46 -20 -112 -90 -138 -149 -15 -35 -26 -83 -30 -131 -13 -174 67
-317 215 -389 34 -17 34 -17 27 -72 -10 -83 -14 -86 -85 -83 -68 2 -100 -17
-100 -59 0 -46 39 -69 102 -62 20 3 39 0 43 -6 3 -5 1 -36 -4 -67 -6 -32 -13
-71 -15 -88 -3 -16 -8 -46 -11 -65 -3 -19 -8 -46 -10 -60 -2 -14 -15 -92 -29
-175 -14 -82 -28 -168 -31 -190 -4 -22 -8 -51 -11 -65 -24 -135 -27 -169 -14
-184 11 -14 52 -16 305 -16 252 0 294 2 305 16 13 14 10 52 -15 194 -6 37 -35
211 -40 240 -2 14 -20 120 -40 235 -19 116 -35 215 -35 221 0 7 17 10 43 9 63
-2 95 12 102 45 6 27 -7 68 -23 71 -4 1 -35 3 -70 4 -35 1 -67 6 -72 11 -4 5
-11 36 -15 69 l-6 60 48 25 c55 29 120 89 150 140 56 94 66 251 24 362 -25 63
-90 137 -140 158 -35 14 -33 4 -32 186 1 133 -7 149 -70 149 l-43 0 -1 437 c0
413 -1 438 -18 451 -21 15 -76 21 -93 9z"/>
<path d="M496 852 c-2 -4 -72 -164 -154 -355 l-150 -347 52 0 52 0 59 138 c32
75 70 162 83 192 13 30 30 69 37 85 44 100 90 206 106 242 11 23 19 44 19 47
0 9 -98 7 -104 -2z"/>
<path d="M971 818 c-107 -245 -229 -528 -256 -590 l-33 -78 52 0 52 0 149 346
c83 190 152 350 153 355 2 5 -19 9 -48 9 -50 0 -51 0 -69 -42z"/>
<path d="M1700 550 l0 -310 55 0 55 0 0 149 0 149 40 36 c46 42 81 46 103 13
12 -18 14 -56 13 -185 l-1 -162 51 0 c33 0 53 5 56 12 7 21 2 320 -6 354 -22
96 -144 121 -241 50 -20 -15 -20 -14 -17 94 l4 110 -56 0 -56 0 0 -310z"/>
<path d="M3210 820 l0 -40 63 0 62 0 0 -230 0 -230 -71 0 -72 0 1 -40 1 -40
190 2 191 3 -1 28 c-1 15 -2 32 -3 37 0 6 -29 10 -64 10 l-62 0 0 268 0 267
-117 3 -118 3 0 -41z"/>
<path d="M3813 817 c-46 -11 -47 -13 -44 -89 l1 -38 -63 0 -63 0 1 -37 1 -38
60 -5 60 -5 1 -120 c2 -164 3 -174 38 -211 25 -26 41 -33 85 -39 30 -3 75 -4
100 -1 25 3 48 5 53 5 4 1 7 21 7 45 l0 43 -68 -5 c-97 -6 -104 4 -106 150 -1
62 0 119 2 126 3 8 30 12 88 12 l84 0 0 40 0 39 -87 3 -88 3 0 68 c1 41 -3 67
-10 66 -5 -1 -29 -6 -52 -12z"/>
<path d="M1410 689 c-14 -5 -37 -22 -52 -36 l-28 -27 0 32 c0 32 0 32 -50 32
l-50 0 0 -225 0 -225 55 0 55 0 0 145 0 144 38 41 c58 60 104 53 118 -18 6
-31 8 -32 61 -32 l54 0 -6 41 c-9 58 -19 80 -49 108 -29 27 -105 38 -146 20z"/>
<path d="M2302 679 c-124 -62 -159 -283 -60 -390 41 -44 96 -59 200 -55 121 5
124 7 124 62 0 37 -3 44 -15 38 -9 -3 -52 -8 -95 -10 -107 -4 -139 15 -161 94
l-6 22 150 0 151 0 0 53 c-1 59 -19 119 -47 149 -51 57 -165 74 -241 37z m149
-83 c12 -13 24 -35 26 -50 l4 -26 -91 0 c-84 0 -90 1 -90 21 0 11 13 34 29 50
38 37 89 40 122 5z"/>
<path d="M2890 689 c-14 -6 -37 -22 -52 -36 l-28 -27 0 32 c0 32 0 32 -50 32
l-50 0 0 -225 0 -225 56 0 55 0 -1 103 c-2 194 -4 183 40 227 59 59 102 53
116 -18 6 -31 8 -32 59 -32 l53 0 -4 38 c-5 59 -33 109 -69 126 -37 18 -88 20
-125 5z"/>
</g>
</svg>
